<mxfile host="Electron" agent="Mozilla/5.0 (Windows NT 10.0; Win64; x64) AppleWebKit/537.36 (KHTML, like Gecko) draw.io/28.0.6 Chrome/138.0.7204.100 Electron/37.2.3 Safari/537.36" version="28.0.6">
  <diagram name="Page-1" id="Lei6lqeXotIwcgzt33gZ">
    <mxGraphModel dx="2977" dy="1789" grid="1" gridSize="10" guides="1" tooltips="1" connect="1" arrows="1" fold="1" page="0" pageScale="1" pageWidth="850" pageHeight="1100" math="0" shadow="0">
      <root>
        <mxCell id="0" />
        <mxCell id="1" parent="0" />
        <mxCell id="t6ElqS2TxdAIW89xS8-H-1" value="RFID Tag Created" style="whiteSpace=wrap;strokeWidth=2;fillColor=#d5e8d4;strokeColor=#82b366;" vertex="1" parent="1">
          <mxGeometry x="186" y="20" width="182" height="54" as="geometry" />
        </mxCell>
        <mxCell id="t6ElqS2TxdAIW89xS8-H-2" value="Assign to Product" style="whiteSpace=wrap;strokeWidth=2;fillColor=#ffe6cc;strokeColor=#d79b00;glass=1;" vertex="1" parent="1">
          <mxGeometry x="185" y="124" width="183" height="54" as="geometry" />
        </mxCell>
        <mxCell id="t6ElqS2TxdAIW89xS8-H-3" value="Product in Inventory" style="whiteSpace=wrap;strokeWidth=2;fillColor=#ffe6cc;strokeColor=#d79b00;glass=1;" vertex="1" parent="1">
          <mxGeometry x="174" y="228" width="205" height="54" as="geometry" />
        </mxCell>
        <mxCell id="t6ElqS2TxdAIW89xS8-H-4" value="Stock Movement?" style="rhombus;strokeWidth=2;whiteSpace=wrap;fillColor=#dae8fc;strokeColor=#6c8ebf;rounded=1;shadow=1;" vertex="1" parent="1">
          <mxGeometry x="188" y="332" width="177" height="177" as="geometry" />
        </mxCell>
        <mxCell id="t6ElqS2TxdAIW89xS8-H-5" value="Update Stock Movement" style="whiteSpace=wrap;strokeWidth=2;fillColor=#fff2cc;strokeColor=#d6b656;" vertex="1" parent="1">
          <mxGeometry x="242" y="581" width="234" height="54" as="geometry" />
        </mxCell>
        <mxCell id="t6ElqS2TxdAIW89xS8-H-6" value="Daily Stock Balance" style="whiteSpace=wrap;strokeWidth=2;fillColor=#fff2cc;strokeColor=#d6b656;" vertex="1" parent="1">
          <mxGeometry x="177" y="685" width="200" height="54" as="geometry" />
        </mxCell>
        <mxCell id="t6ElqS2TxdAIW89xS8-H-7" value="Stock Verification?" style="rhombus;strokeWidth=2;whiteSpace=wrap;fillColor=#dae8fc;strokeColor=#6c8ebf;rounded=1;shadow=1;" vertex="1" parent="1">
          <mxGeometry x="184" y="789" width="186" height="186" as="geometry" />
        </mxCell>
        <mxCell id="t6ElqS2TxdAIW89xS8-H-8" value="Scan RFID Tags" style="whiteSpace=wrap;strokeWidth=2;fillColor=#fff2cc;strokeColor=#d6b656;rounded=1;" vertex="1" parent="1">
          <mxGeometry x="274" y="1048" width="164" height="54" as="geometry" />
        </mxCell>
        <mxCell id="t6ElqS2TxdAIW89xS8-H-9" value="Continue Normal Operations" style="whiteSpace=wrap;strokeWidth=2;fillColor=#fff2cc;strokeColor=#d6b656;rounded=1;" vertex="1" parent="1">
          <mxGeometry x="86" y="1479" width="260" height="78" as="geometry" />
        </mxCell>
        <mxCell id="t6ElqS2TxdAIW89xS8-H-10" value="Match Found?" style="rhombus;strokeWidth=2;whiteSpace=wrap;fillColor=#dae8fc;strokeColor=#6c8ebf;rounded=1;shadow=1;" vertex="1" parent="1">
          <mxGeometry x="281" y="1152" width="151" height="151" as="geometry" />
        </mxCell>
        <mxCell id="t6ElqS2TxdAIW89xS8-H-11" value="Update Verification Status" style="whiteSpace=wrap;strokeWidth=2;fillColor=#fff2cc;strokeColor=#d6b656;rounded=1;" vertex="1" parent="1">
          <mxGeometry x="92" y="1375" width="248" height="54" as="geometry" />
        </mxCell>
        <mxCell id="t6ElqS2TxdAIW89xS8-H-12" value="Flag for Investigation" style="whiteSpace=wrap;strokeWidth=2;fillColor=#fff2cc;strokeColor=#d6b656;rounded=1;" vertex="1" parent="1">
          <mxGeometry x="390" y="1375" width="212" height="54" as="geometry" />
        </mxCell>
        <mxCell id="t6ElqS2TxdAIW89xS8-H-13" value="Sale Transaction?" style="rhombus;strokeWidth=2;whiteSpace=wrap;fillColor=#dae8fc;strokeColor=#6c8ebf;rounded=1;shadow=1;" vertex="1" parent="1">
          <mxGeometry x="128" y="1607" width="176" height="176" as="geometry" />
        </mxCell>
        <mxCell id="t6ElqS2TxdAIW89xS8-H-14" value="Create Invoice" style="whiteSpace=wrap;strokeWidth=2;fillColor=#fff2cc;strokeColor=#d6b656;rounded=1;" vertex="1" parent="1">
          <mxGeometry x="55" y="1856" width="164" height="54" as="geometry" />
        </mxCell>
        <mxCell id="t6ElqS2TxdAIW89xS8-H-15" value="Return to Inventory" style="whiteSpace=wrap;strokeWidth=2;fillColor=#fff2cc;strokeColor=#d6b656;rounded=1;" vertex="1" parent="1">
          <mxGeometry x="304" y="1960" width="200" height="54" as="geometry" />
        </mxCell>
        <mxCell id="t6ElqS2TxdAIW89xS8-H-16" value="Update Stock Movement" style="whiteSpace=wrap;strokeWidth=2;fillColor=#fff2cc;strokeColor=#d6b656;rounded=1;" vertex="1" parent="1">
          <mxGeometry x="20" y="1960" width="234" height="54" as="geometry" />
        </mxCell>
        <mxCell id="t6ElqS2TxdAIW89xS8-H-17" value="Update Daily Balance" style="whiteSpace=wrap;strokeWidth=2;fillColor=#d5e8d4;strokeColor=#82b366;glass=1;" vertex="1" parent="1">
          <mxGeometry x="110" y="2064" width="213" height="54" as="geometry" />
        </mxCell>
        <mxCell id="t6ElqS2TxdAIW89xS8-H-18" value="RFID Status Updated" style="whiteSpace=wrap;strokeWidth=2;fillColor=#d5e8d4;strokeColor=#82b366;glass=1;rounded=1;" vertex="1" parent="1">
          <mxGeometry x="113" y="2168" width="206" height="54" as="geometry" />
        </mxCell>
        <mxCell id="t6ElqS2TxdAIW89xS8-H-19" value="" style="curved=1;startArrow=none;endArrow=block;exitX=0.5;exitY=1;entryX=0.5;entryY=0;rounded=0;" edge="1" parent="1" source="t6ElqS2TxdAIW89xS8-H-1" target="t6ElqS2TxdAIW89xS8-H-2">
          <mxGeometry relative="1" as="geometry">
            <Array as="points" />
          </mxGeometry>
        </mxCell>
        <mxCell id="t6ElqS2TxdAIW89xS8-H-20" value="" style="curved=1;startArrow=none;endArrow=block;exitX=0.5;exitY=1;entryX=0.5;entryY=0;rounded=0;" edge="1" parent="1" source="t6ElqS2TxdAIW89xS8-H-2" target="t6ElqS2TxdAIW89xS8-H-3">
          <mxGeometry relative="1" as="geometry">
            <Array as="points" />
          </mxGeometry>
        </mxCell>
        <mxCell id="t6ElqS2TxdAIW89xS8-H-21" value="" style="curved=1;startArrow=none;endArrow=block;exitX=0.5;exitY=1;entryX=0.5;entryY=0;rounded=0;" edge="1" parent="1" source="t6ElqS2TxdAIW89xS8-H-3" target="t6ElqS2TxdAIW89xS8-H-4">
          <mxGeometry relative="1" as="geometry">
            <Array as="points" />
          </mxGeometry>
        </mxCell>
        <mxCell id="t6ElqS2TxdAIW89xS8-H-22" value="Yes" style="curved=1;startArrow=none;endArrow=block;exitX=0.83;exitY=1;entryX=0.5;entryY=0.01;rounded=0;" edge="1" parent="1" source="t6ElqS2TxdAIW89xS8-H-4" target="t6ElqS2TxdAIW89xS8-H-5">
          <mxGeometry relative="1" as="geometry">
            <Array as="points">
              <mxPoint x="358" y="545" />
            </Array>
          </mxGeometry>
        </mxCell>
        <mxCell id="t6ElqS2TxdAIW89xS8-H-23" value="No" style="curved=1;startArrow=none;endArrow=block;exitX=0.17;exitY=1;entryX=0.29;entryY=0.01;rounded=0;" edge="1" parent="1" source="t6ElqS2TxdAIW89xS8-H-4" target="t6ElqS2TxdAIW89xS8-H-6">
          <mxGeometry relative="1" as="geometry">
            <Array as="points">
              <mxPoint x="195" y="545" />
              <mxPoint x="195" y="660" />
            </Array>
          </mxGeometry>
        </mxCell>
        <mxCell id="t6ElqS2TxdAIW89xS8-H-24" value="" style="curved=1;startArrow=none;endArrow=block;exitX=0.5;exitY=1.01;entryX=0.71;entryY=0.01;rounded=0;" edge="1" parent="1" source="t6ElqS2TxdAIW89xS8-H-5" target="t6ElqS2TxdAIW89xS8-H-6">
          <mxGeometry relative="1" as="geometry">
            <Array as="points">
              <mxPoint x="358" y="660" />
            </Array>
          </mxGeometry>
        </mxCell>
        <mxCell id="t6ElqS2TxdAIW89xS8-H-25" value="" style="curved=1;startArrow=none;endArrow=block;exitX=0.5;exitY=1.01;entryX=0.5;entryY=0;rounded=0;" edge="1" parent="1" source="t6ElqS2TxdAIW89xS8-H-6" target="t6ElqS2TxdAIW89xS8-H-7">
          <mxGeometry relative="1" as="geometry">
            <Array as="points" />
          </mxGeometry>
        </mxCell>
        <mxCell id="t6ElqS2TxdAIW89xS8-H-26" value="Yes" style="curved=1;startArrow=none;endArrow=block;exitX=0.81;exitY=1;entryX=0.5;entryY=0;rounded=0;" edge="1" parent="1" source="t6ElqS2TxdAIW89xS8-H-7" target="t6ElqS2TxdAIW89xS8-H-8">
          <mxGeometry relative="1" as="geometry">
            <Array as="points">
              <mxPoint x="356" y="1012" />
            </Array>
          </mxGeometry>
        </mxCell>
        <mxCell id="t6ElqS2TxdAIW89xS8-H-27" value="No" style="curved=1;startArrow=none;endArrow=block;exitX=0;exitY=0.8;entryX=0.13;entryY=0;rounded=0;" edge="1" parent="1" source="t6ElqS2TxdAIW89xS8-H-7" target="t6ElqS2TxdAIW89xS8-H-9">
          <mxGeometry relative="1" as="geometry">
            <Array as="points">
              <mxPoint x="57" y="1012" />
              <mxPoint x="57" y="1454" />
            </Array>
          </mxGeometry>
        </mxCell>
        <mxCell id="t6ElqS2TxdAIW89xS8-H-28" value="" style="curved=1;startArrow=none;endArrow=block;exitX=0.5;exitY=1;entryX=0.5;entryY=0;rounded=0;" edge="1" parent="1" source="t6ElqS2TxdAIW89xS8-H-8" target="t6ElqS2TxdAIW89xS8-H-10">
          <mxGeometry relative="1" as="geometry">
            <Array as="points" />
          </mxGeometry>
        </mxCell>
        <mxCell id="t6ElqS2TxdAIW89xS8-H-29" value="Yes" style="curved=1;startArrow=none;endArrow=block;exitX=0;exitY=0.9;entryX=0.5;entryY=0;rounded=0;" edge="1" parent="1" source="t6ElqS2TxdAIW89xS8-H-10" target="t6ElqS2TxdAIW89xS8-H-11">
          <mxGeometry relative="1" as="geometry">
            <Array as="points">
              <mxPoint x="216" y="1339" />
            </Array>
          </mxGeometry>
        </mxCell>
        <mxCell id="t6ElqS2TxdAIW89xS8-H-30" value="No" style="curved=1;startArrow=none;endArrow=block;exitX=1;exitY=0.9;entryX=0.5;entryY=0;rounded=0;" edge="1" parent="1" source="t6ElqS2TxdAIW89xS8-H-10" target="t6ElqS2TxdAIW89xS8-H-12">
          <mxGeometry relative="1" as="geometry">
            <Array as="points">
              <mxPoint x="496" y="1339" />
            </Array>
          </mxGeometry>
        </mxCell>
        <mxCell id="t6ElqS2TxdAIW89xS8-H-31" value="" style="curved=1;startArrow=none;endArrow=block;exitX=0.5;exitY=1;entryX=0.5;entryY=0;rounded=0;" edge="1" parent="1" source="t6ElqS2TxdAIW89xS8-H-11" target="t6ElqS2TxdAIW89xS8-H-9">
          <mxGeometry relative="1" as="geometry">
            <Array as="points" />
          </mxGeometry>
        </mxCell>
        <mxCell id="t6ElqS2TxdAIW89xS8-H-32" value="" style="curved=1;startArrow=none;endArrow=block;exitX=0.5;exitY=1;entryX=1;entryY=0.12;rounded=0;" edge="1" parent="1" source="t6ElqS2TxdAIW89xS8-H-12" target="t6ElqS2TxdAIW89xS8-H-9">
          <mxGeometry relative="1" as="geometry">
            <Array as="points">
              <mxPoint x="496" y="1454" />
            </Array>
          </mxGeometry>
        </mxCell>
        <mxCell id="t6ElqS2TxdAIW89xS8-H-33" value="" style="curved=1;startArrow=none;endArrow=block;exitX=0.5;exitY=1;entryX=0.5;entryY=0;rounded=0;" edge="1" parent="1" source="t6ElqS2TxdAIW89xS8-H-9" target="t6ElqS2TxdAIW89xS8-H-13">
          <mxGeometry relative="1" as="geometry">
            <Array as="points" />
          </mxGeometry>
        </mxCell>
        <mxCell id="t6ElqS2TxdAIW89xS8-H-34" value="Yes" style="curved=1;startArrow=none;endArrow=block;exitX=0.18;exitY=1;entryX=0.5;entryY=-0.01;rounded=0;" edge="1" parent="1" source="t6ElqS2TxdAIW89xS8-H-13" target="t6ElqS2TxdAIW89xS8-H-14">
          <mxGeometry relative="1" as="geometry">
            <Array as="points">
              <mxPoint x="137" y="1819" />
            </Array>
          </mxGeometry>
        </mxCell>
        <mxCell id="t6ElqS2TxdAIW89xS8-H-35" value="No" style="curved=1;startArrow=none;endArrow=block;exitX=1;exitY=0.83;entryX=0.5;entryY=-0.01;rounded=0;" edge="1" parent="1" source="t6ElqS2TxdAIW89xS8-H-13" target="t6ElqS2TxdAIW89xS8-H-15">
          <mxGeometry relative="1" as="geometry">
            <Array as="points">
              <mxPoint x="403" y="1819" />
            </Array>
          </mxGeometry>
        </mxCell>
        <mxCell id="t6ElqS2TxdAIW89xS8-H-36" value="" style="curved=1;startArrow=none;endArrow=block;exitX=0.5;exitY=0.99;entryX=0.5;entryY=-0.01;rounded=0;" edge="1" parent="1" source="t6ElqS2TxdAIW89xS8-H-14" target="t6ElqS2TxdAIW89xS8-H-16">
          <mxGeometry relative="1" as="geometry">
            <Array as="points" />
          </mxGeometry>
        </mxCell>
        <mxCell id="t6ElqS2TxdAIW89xS8-H-37" value="" style="curved=1;startArrow=none;endArrow=block;exitX=0.5;exitY=0.99;entryX=0.31;entryY=-0.01;rounded=0;" edge="1" parent="1" source="t6ElqS2TxdAIW89xS8-H-16" target="t6ElqS2TxdAIW89xS8-H-17">
          <mxGeometry relative="1" as="geometry">
            <Array as="points">
              <mxPoint x="137" y="2039" />
            </Array>
          </mxGeometry>
        </mxCell>
        <mxCell id="t6ElqS2TxdAIW89xS8-H-38" value="" style="curved=1;startArrow=none;endArrow=block;exitX=0.5;exitY=0.99;entryX=0.96;entryY=-0.01;rounded=0;" edge="1" parent="1" source="t6ElqS2TxdAIW89xS8-H-15" target="t6ElqS2TxdAIW89xS8-H-17">
          <mxGeometry relative="1" as="geometry">
            <Array as="points">
              <mxPoint x="403" y="2039" />
            </Array>
          </mxGeometry>
        </mxCell>
        <mxCell id="t6ElqS2TxdAIW89xS8-H-39" value="" style="curved=1;startArrow=none;endArrow=block;exitX=0.5;exitY=0.99;entryX=0.5;entryY=-0.01;rounded=0;" edge="1" parent="1" source="t6ElqS2TxdAIW89xS8-H-17" target="t6ElqS2TxdAIW89xS8-H-18">
          <mxGeometry relative="1" as="geometry">
            <Array as="points" />
          </mxGeometry>
        </mxCell>
      </root>
    </mxGraphModel>
  </diagram>
</mxfile>
